<svg width="20" height="20" viewBox="0 0 20 20" fill="none" xmlns="http://www.w3.org/2000/svg">
<g clip-path="url(#clip0)">
<path d="M12.7584 7.24603C12.4997 7.24603 12.29 7.45571 12.29 7.71442V16.5669C12.29 16.8254 12.4997 17.0353 12.7584 17.0353C13.0171 17.0353 13.2268 16.8254 13.2268 16.5669V7.71442C13.2268 7.45571 13.0171 7.24603 12.7584 7.24603Z" fill="#4E4E4E"/>
<path d="M7.23206 7.24603C6.97335 7.24603 6.76367 7.45571 6.76367 7.71442V16.5669C6.76367 16.8254 6.97335 17.0353 7.23206 17.0353C7.49077 17.0353 7.70044 16.8254 7.70044 16.5669V7.71442C7.70044 7.45571 7.49077 7.24603 7.23206 7.24603Z" fill="#4E4E4E"/>
<path d="M3.20431 5.95413V17.4941C3.20431 18.1762 3.45442 18.8167 3.89133 19.2763C4.32623 19.7372 4.93147 19.9988 5.56488 19.9999H14.4268C15.0604 19.9988 15.6657 19.7372 16.1004 19.2763C16.5373 18.8167 16.7874 18.1762 16.7874 17.4941V5.95413C17.6559 5.7236 18.2187 4.88454 18.1025 3.99333C17.9862 3.1023 17.2271 2.43577 16.3284 2.43559H13.9303V1.85011C13.933 1.35776 13.7383 0.884988 13.3898 0.537177C13.0413 0.189549 12.5677 -0.00402466 12.0754 5.06487e-07H7.91631C7.42396 -0.00402466 6.95045 0.189549 6.60191 0.537177C6.25337 0.884988 6.0587 1.35776 6.06144 1.85011V2.43559H3.66336C2.76465 2.43577 2.00554 3.1023 1.88918 3.99333C1.773 4.88454 2.33579 5.7236 3.20431 5.95413ZM14.4268 19.0632H5.56488C4.76406 19.0632 4.14107 18.3752 4.14107 17.4941V5.9953H15.8506V17.4941C15.8506 18.3752 15.2277 19.0632 14.4268 19.0632ZM6.99821 1.85011C6.9951 1.60622 7.09097 1.37148 7.26405 1.19932C7.43695 1.02715 7.67224 0.932558 7.91631 0.936766H12.0754C12.3195 0.932558 12.5548 1.02715 12.7277 1.19932C12.9007 1.3713 12.9966 1.60622 12.9935 1.85011V2.43559H6.99821V1.85011ZM3.66336 3.37236H16.3284C16.794 3.37236 17.1714 3.74981 17.1714 4.21544C17.1714 4.68108 16.794 5.05853 16.3284 5.05853H3.66336C3.19772 5.05853 2.82027 4.68108 2.82027 4.21544C2.82027 3.74981 3.19772 3.37236 3.66336 3.37236Z" fill="#4E4E4E"/>
<path d="M9.99572 7.24603C9.73702 7.24603 9.52734 7.45571 9.52734 7.71442V16.5669C9.52734 16.8254 9.73702 17.0353 9.99572 17.0353C10.2544 17.0353 10.4641 16.8254 10.4641 16.5669V7.71442C10.4641 7.45571 10.2544 7.24603 9.99572 7.24603Z" fill="#4E4E4E"/>
</g>
<defs>
<clipPath id="clip0">
<rect width="20" height="20" fill="white"/>
</clipPath>
</defs>
</svg>
